<?xml version="1.0" standalone="no"?>
<!DOCTYPE svg PUBLIC "-//W3C//DTD SVG 20010904//EN"
 "http://www.w3.org/TR/2001/REC-SVG-20010904/DTD/svg10.dtd">
<svg version="1.0" xmlns="http://www.w3.org/2000/svg"
 width="512.000000pt" height="512.000000pt" viewBox="0 0 512.000000 512.000000"
 preserveAspectRatio="xMidYMid meet">
<metadata>
Created by potrace 1.14, written by Peter Selinger 2001-2017
</metadata>
<g transform="translate(0.000000,512.000000) scale(0.100000,-0.100000)"
fill="#000000" stroke="none">
<path d="M2390 5059 c-166 -14 -218 -22 -365 -54 -155 -35 -256 -63 -320 -90
-16 -7 -66 -27 -110 -45 -332 -133 -702 -403 -940 -686 -97 -116 -118 -144
-188 -251 -154 -234 -272 -505 -341 -778 -16 -65 -19 -81 -41 -223 -36 -224
-37 -480 -5 -723 11 -81 13 -89 29 -159 5 -25 12 -56 14 -70 5 -28 40 -149 63
-218 84 -253 237 -536 406 -749 246 -309 543 -547 893 -713 133 -63 129 -61
235 -99 149 -52 351 -104 455 -116 28 -3 61 -7 75 -10 143 -22 503 -23 615 -1
11 2 40 7 65 10 25 3 59 9 75 12 17 3 39 7 50 9 11 2 31 6 45 9 14 3 34 8 45
10 11 3 54 14 95 26 865 243 1544 948 1754 1822 30 126 34 147 42 223 3 33 8
63 10 67 20 33 20 533 -1 608 -2 8 -6 38 -10 65 -26 215 -113 493 -226 725
-63 128 -74 146 -168 290 -337 514 -894 903 -1496 1045 -244 57 -535 82 -755
64z"/>
</g>
</svg>
